<mxfile host="app.diagrams.net" agent="Mozilla/5.0 (X11; Linux x86_64) AppleWebKit/537.36 (KHTML, like Gecko) Chrome/131.0.0.0 Safari/537.36" version="26.0.5">
  <diagram name="Page-1" id="brcRHLZSZZ3QdZIFKqLz">
    <mxGraphModel dx="667" dy="348" grid="1" gridSize="10" guides="1" tooltips="1" connect="1" arrows="1" fold="1" page="1" pageScale="1" pageWidth="850" pageHeight="1100" math="0" shadow="0">
      <root>
        <mxCell id="0" />
        <mxCell id="1" parent="0" />
        <mxCell id="yjPDtsbYRcowjqi206cl-1" style="edgeStyle=orthogonalEdgeStyle;rounded=0;orthogonalLoop=1;jettySize=auto;html=1;entryX=0;entryY=0.5;entryDx=0;entryDy=0;curved=1;" parent="1" source="yjPDtsbYRcowjqi206cl-3" target="yjPDtsbYRcowjqi206cl-6" edge="1">
          <mxGeometry relative="1" as="geometry">
            <Array as="points">
              <mxPoint x="200" y="520" />
              <mxPoint x="200" y="175" />
            </Array>
          </mxGeometry>
        </mxCell>
        <mxCell id="yjPDtsbYRcowjqi206cl-14" style="edgeStyle=orthogonalEdgeStyle;rounded=0;orthogonalLoop=1;jettySize=auto;html=1;entryX=0;entryY=0.5;entryDx=0;entryDy=0;curved=1;" parent="1" source="yjPDtsbYRcowjqi206cl-3" target="yjPDtsbYRcowjqi206cl-12" edge="1">
          <mxGeometry relative="1" as="geometry" />
        </mxCell>
        <mxCell id="yjPDtsbYRcowjqi206cl-3" value="NotLogged User" style="shape=umlActor;html=1;verticalLabelPosition=bottom;verticalAlign=top;align=center;" parent="1" vertex="1">
          <mxGeometry x="120" y="490" width="30" height="60" as="geometry" />
        </mxCell>
        <mxCell id="qMvJIxNHmPr7OcgjMdFQ-27" style="edgeStyle=orthogonalEdgeStyle;rounded=0;orthogonalLoop=1;jettySize=auto;html=1;entryX=1;entryY=0.5;entryDx=0;entryDy=0;curved=1;" parent="1" source="yjPDtsbYRcowjqi206cl-10" target="qMvJIxNHmPr7OcgjMdFQ-1" edge="1">
          <mxGeometry relative="1" as="geometry">
            <Array as="points">
              <mxPoint x="730" y="520" />
              <mxPoint x="730" y="1325" />
            </Array>
          </mxGeometry>
        </mxCell>
        <mxCell id="qMvJIxNHmPr7OcgjMdFQ-28" style="edgeStyle=orthogonalEdgeStyle;rounded=0;orthogonalLoop=1;jettySize=auto;html=1;entryX=1;entryY=0.5;entryDx=0;entryDy=0;curved=1;" parent="1" source="yjPDtsbYRcowjqi206cl-10" target="KNTCAuKEoSOJy40B1Vdb-8" edge="1">
          <mxGeometry relative="1" as="geometry">
            <Array as="points">
              <mxPoint x="700" y="520" />
              <mxPoint x="700" y="1215" />
            </Array>
          </mxGeometry>
        </mxCell>
        <mxCell id="qMvJIxNHmPr7OcgjMdFQ-29" style="edgeStyle=orthogonalEdgeStyle;rounded=0;orthogonalLoop=1;jettySize=auto;html=1;entryX=1;entryY=0.5;entryDx=0;entryDy=0;curved=1;" parent="1" source="yjPDtsbYRcowjqi206cl-10" target="yjPDtsbYRcowjqi206cl-16" edge="1">
          <mxGeometry relative="1" as="geometry" />
        </mxCell>
        <mxCell id="qMvJIxNHmPr7OcgjMdFQ-30" style="edgeStyle=orthogonalEdgeStyle;rounded=0;orthogonalLoop=1;jettySize=auto;html=1;entryX=1;entryY=0.5;entryDx=0;entryDy=0;curved=1;" parent="1" source="yjPDtsbYRcowjqi206cl-10" target="qMvJIxNHmPr7OcgjMdFQ-6" edge="1">
          <mxGeometry relative="1" as="geometry" />
        </mxCell>
        <mxCell id="qMvJIxNHmPr7OcgjMdFQ-31" style="edgeStyle=orthogonalEdgeStyle;rounded=0;orthogonalLoop=1;jettySize=auto;html=1;entryX=1;entryY=0.5;entryDx=0;entryDy=0;curved=1;" parent="1" source="yjPDtsbYRcowjqi206cl-10" target="yjPDtsbYRcowjqi206cl-15" edge="1">
          <mxGeometry relative="1" as="geometry">
            <Array as="points">
              <mxPoint x="680" y="520" />
              <mxPoint x="680" y="815" />
            </Array>
          </mxGeometry>
        </mxCell>
        <mxCell id="qMvJIxNHmPr7OcgjMdFQ-33" style="edgeStyle=orthogonalEdgeStyle;rounded=0;orthogonalLoop=1;jettySize=auto;html=1;entryX=1;entryY=0.5;entryDx=0;entryDy=0;curved=1;" parent="1" source="yjPDtsbYRcowjqi206cl-10" target="KNTCAuKEoSOJy40B1Vdb-11" edge="1">
          <mxGeometry relative="1" as="geometry" />
        </mxCell>
        <mxCell id="qMvJIxNHmPr7OcgjMdFQ-35" style="edgeStyle=orthogonalEdgeStyle;rounded=0;orthogonalLoop=1;jettySize=auto;html=1;entryX=1;entryY=0.5;entryDx=0;entryDy=0;curved=1;" parent="1" source="yjPDtsbYRcowjqi206cl-10" target="yjPDtsbYRcowjqi206cl-12" edge="1">
          <mxGeometry relative="1" as="geometry">
            <Array as="points">
              <mxPoint x="690" y="520" />
              <mxPoint x="690" y="265" />
            </Array>
          </mxGeometry>
        </mxCell>
        <mxCell id="qMvJIxNHmPr7OcgjMdFQ-36" style="edgeStyle=orthogonalEdgeStyle;rounded=0;orthogonalLoop=1;jettySize=auto;html=1;entryX=1;entryY=0.5;entryDx=0;entryDy=0;curved=1;" parent="1" source="yjPDtsbYRcowjqi206cl-10" target="yjPDtsbYRcowjqi206cl-6" edge="1">
          <mxGeometry relative="1" as="geometry">
            <Array as="points">
              <mxPoint x="720" y="520" />
              <mxPoint x="720" y="175" />
            </Array>
          </mxGeometry>
        </mxCell>
        <mxCell id="w85kOjX8DR1hivvBv0Vt-1" style="edgeStyle=orthogonalEdgeStyle;rounded=0;orthogonalLoop=1;jettySize=auto;html=1;entryX=1;entryY=0.5;entryDx=0;entryDy=0;curved=1;" edge="1" parent="1" source="yjPDtsbYRcowjqi206cl-10" target="KNTCAuKEoSOJy40B1Vdb-13">
          <mxGeometry relative="1" as="geometry" />
        </mxCell>
        <mxCell id="w85kOjX8DR1hivvBv0Vt-2" style="edgeStyle=orthogonalEdgeStyle;rounded=0;orthogonalLoop=1;jettySize=auto;html=1;entryX=1;entryY=0.5;entryDx=0;entryDy=0;curved=1;" edge="1" parent="1" source="yjPDtsbYRcowjqi206cl-10" target="qMvJIxNHmPr7OcgjMdFQ-10">
          <mxGeometry relative="1" as="geometry" />
        </mxCell>
        <mxCell id="yjPDtsbYRcowjqi206cl-10" value="Logged User" style="shape=umlActor;html=1;verticalLabelPosition=bottom;verticalAlign=top;align=center;" parent="1" vertex="1">
          <mxGeometry x="760" y="490" width="30" height="60" as="geometry" />
        </mxCell>
        <mxCell id="KNTCAuKEoSOJy40B1Vdb-1" value="CryptoMonitor" style="swimlane;whiteSpace=wrap;html=1;" parent="1" vertex="1">
          <mxGeometry x="260" y="77.5" width="420" height="1312.5" as="geometry" />
        </mxCell>
        <mxCell id="yjPDtsbYRcowjqi206cl-6" value="monitor crypto market" style="ellipse;whiteSpace=wrap;html=1;" parent="KNTCAuKEoSOJy40B1Vdb-1" vertex="1">
          <mxGeometry x="130" y="62.5" width="140" height="70" as="geometry" />
        </mxCell>
        <mxCell id="yjPDtsbYRcowjqi206cl-12" value="watch a crypto" style="ellipse;whiteSpace=wrap;html=1;" parent="KNTCAuKEoSOJy40B1Vdb-1" vertex="1">
          <mxGeometry x="130" y="152.5" width="140" height="70" as="geometry" />
        </mxCell>
        <mxCell id="KNTCAuKEoSOJy40B1Vdb-3" value="Wallet" style="swimlane;whiteSpace=wrap;html=1;" parent="KNTCAuKEoSOJy40B1Vdb-1" vertex="1">
          <mxGeometry x="40" y="672.5" width="340" height="357.5" as="geometry">
            <mxRectangle x="50" y="252.5" width="70" height="30" as="alternateBounds" />
          </mxGeometry>
        </mxCell>
        <mxCell id="yjPDtsbYRcowjqi206cl-15" value="access to wallet" style="ellipse;whiteSpace=wrap;html=1;" parent="KNTCAuKEoSOJy40B1Vdb-3" vertex="1">
          <mxGeometry x="30" y="30" width="140" height="70" as="geometry" />
        </mxCell>
        <mxCell id="yjPDtsbYRcowjqi206cl-16" value="save a transaction" style="ellipse;whiteSpace=wrap;html=1;" parent="KNTCAuKEoSOJy40B1Vdb-3" vertex="1">
          <mxGeometry x="160" y="260" width="140" height="70" as="geometry" />
        </mxCell>
        <mxCell id="yjPDtsbYRcowjqi206cl-18" style="edgeStyle=orthogonalEdgeStyle;rounded=0;orthogonalLoop=1;jettySize=auto;html=1;entryX=0.5;entryY=1;entryDx=0;entryDy=0;strokeColor=default;dashed=1;curved=1;exitX=0;exitY=0.5;exitDx=0;exitDy=0;" parent="KNTCAuKEoSOJy40B1Vdb-3" source="yjPDtsbYRcowjqi206cl-16" target="yjPDtsbYRcowjqi206cl-15" edge="1">
          <mxGeometry relative="1" as="geometry" />
        </mxCell>
        <mxCell id="yjPDtsbYRcowjqi206cl-19" value="&amp;lt;&amp;lt;extend&amp;gt;&amp;gt;" style="edgeLabel;html=1;align=center;verticalAlign=middle;resizable=0;points=[];" parent="yjPDtsbYRcowjqi206cl-18" vertex="1" connectable="0">
          <mxGeometry x="-0.2357" y="1" relative="1" as="geometry">
            <mxPoint as="offset" />
          </mxGeometry>
        </mxCell>
        <mxCell id="qMvJIxNHmPr7OcgjMdFQ-8" style="edgeStyle=orthogonalEdgeStyle;rounded=0;orthogonalLoop=1;jettySize=auto;html=1;exitX=0;exitY=0.5;exitDx=0;exitDy=0;dashed=1;curved=1;" parent="KNTCAuKEoSOJy40B1Vdb-3" source="qMvJIxNHmPr7OcgjMdFQ-6" edge="1">
          <mxGeometry relative="1" as="geometry">
            <mxPoint x="100" y="100" as="targetPoint" />
          </mxGeometry>
        </mxCell>
        <mxCell id="qMvJIxNHmPr7OcgjMdFQ-6" value="see wallet history" style="ellipse;whiteSpace=wrap;html=1;" parent="KNTCAuKEoSOJy40B1Vdb-3" vertex="1">
          <mxGeometry x="160" y="130" width="140" height="70" as="geometry" />
        </mxCell>
        <mxCell id="qMvJIxNHmPr7OcgjMdFQ-9" value="&amp;lt;&amp;lt;extend&amp;gt;&amp;gt;" style="edgeLabel;html=1;align=center;verticalAlign=middle;resizable=0;points=[];" parent="KNTCAuKEoSOJy40B1Vdb-3" vertex="1" connectable="0">
          <mxGeometry x="109" y="178.75" as="geometry">
            <mxPoint x="19" y="-21" as="offset" />
          </mxGeometry>
        </mxCell>
        <mxCell id="KNTCAuKEoSOJy40B1Vdb-7" value="Account" style="swimlane;whiteSpace=wrap;html=1;" parent="KNTCAuKEoSOJy40B1Vdb-1" vertex="1">
          <mxGeometry x="110" y="1072.5" width="200" height="217.5" as="geometry" />
        </mxCell>
        <mxCell id="KNTCAuKEoSOJy40B1Vdb-8" value="view account" style="ellipse;whiteSpace=wrap;html=1;" parent="KNTCAuKEoSOJy40B1Vdb-7" vertex="1">
          <mxGeometry x="30" y="30" width="140" height="70" as="geometry" />
        </mxCell>
        <mxCell id="qMvJIxNHmPr7OcgjMdFQ-3" style="edgeStyle=orthogonalEdgeStyle;rounded=0;orthogonalLoop=1;jettySize=auto;html=1;exitX=0.5;exitY=0;exitDx=0;exitDy=0;entryX=0.5;entryY=1;entryDx=0;entryDy=0;dashed=1;" parent="KNTCAuKEoSOJy40B1Vdb-7" source="qMvJIxNHmPr7OcgjMdFQ-1" target="KNTCAuKEoSOJy40B1Vdb-8" edge="1">
          <mxGeometry relative="1" as="geometry" />
        </mxCell>
        <mxCell id="qMvJIxNHmPr7OcgjMdFQ-4" value="&amp;lt;&amp;lt;extend&amp;gt;&amp;gt;" style="edgeLabel;html=1;align=center;verticalAlign=middle;resizable=0;points=[];" parent="qMvJIxNHmPr7OcgjMdFQ-3" vertex="1" connectable="0">
          <mxGeometry x="-0.25" y="-3" relative="1" as="geometry">
            <mxPoint as="offset" />
          </mxGeometry>
        </mxCell>
        <mxCell id="qMvJIxNHmPr7OcgjMdFQ-1" value="edit account" style="ellipse;whiteSpace=wrap;html=1;" parent="KNTCAuKEoSOJy40B1Vdb-7" vertex="1">
          <mxGeometry x="30" y="140" width="140" height="70" as="geometry" />
        </mxCell>
        <mxCell id="KNTCAuKEoSOJy40B1Vdb-10" value="Watchlist" style="swimlane;whiteSpace=wrap;html=1;" parent="KNTCAuKEoSOJy40B1Vdb-1" vertex="1">
          <mxGeometry x="35" y="242.5" width="350" height="390" as="geometry" />
        </mxCell>
        <mxCell id="KNTCAuKEoSOJy40B1Vdb-11" value="add crypto to watchlist" style="ellipse;whiteSpace=wrap;html=1;" parent="KNTCAuKEoSOJy40B1Vdb-10" vertex="1">
          <mxGeometry x="95" y="135" width="140" height="70" as="geometry" />
        </mxCell>
        <mxCell id="qMvJIxNHmPr7OcgjMdFQ-20" style="edgeStyle=orthogonalEdgeStyle;rounded=0;orthogonalLoop=1;jettySize=auto;html=1;entryX=0.5;entryY=1;entryDx=0;entryDy=0;dashed=1;" parent="KNTCAuKEoSOJy40B1Vdb-10" source="KNTCAuKEoSOJy40B1Vdb-13" target="KNTCAuKEoSOJy40B1Vdb-11" edge="1">
          <mxGeometry relative="1" as="geometry" />
        </mxCell>
        <mxCell id="qMvJIxNHmPr7OcgjMdFQ-21" value="&amp;lt;&amp;lt;extend&amp;gt;&amp;gt;" style="edgeLabel;html=1;align=center;verticalAlign=middle;resizable=0;points=[];" parent="qMvJIxNHmPr7OcgjMdFQ-20" vertex="1" connectable="0">
          <mxGeometry x="0.15" y="-3" relative="1" as="geometry">
            <mxPoint as="offset" />
          </mxGeometry>
        </mxCell>
        <mxCell id="KNTCAuKEoSOJy40B1Vdb-13" value="remove crypto from watchlist" style="ellipse;whiteSpace=wrap;html=1;" parent="KNTCAuKEoSOJy40B1Vdb-10" vertex="1">
          <mxGeometry x="95" y="285" width="140" height="70" as="geometry" />
        </mxCell>
        <mxCell id="qMvJIxNHmPr7OcgjMdFQ-10" value="view watchlist" style="ellipse;whiteSpace=wrap;html=1;" parent="KNTCAuKEoSOJy40B1Vdb-10" vertex="1">
          <mxGeometry x="95" y="45" width="140" height="70" as="geometry" />
        </mxCell>
      </root>
    </mxGraphModel>
  </diagram>
</mxfile>
